# xmcd CD database file
#
# Track frame offsets:
#	150
#	18750
#	36300
#	49500
#	74400
#	112725
#	139500
#	154725
#	176100
#	191550
#	206850
#	220050
#	247275
#	273000
#	286125
#	304125
#	324600
#	341325
#
# Disc length: 4773 seconds
#
# Revision: 1
# Processed by: cddbd v1.5.1PL0 Copyright (c) Steve Scherf et al.
# Submitted via: freeDBTagger 0.5
#
DISCID=0712a312
DTITLE=Various Artist - J-ロックの細道8
DYEAR=1900
DGENRE=rock
TTITLE0=クラッシュ
TTITLE1=ドゥープ
TTITLE2=ラスト・チャンス
TTITLE3=原爆落し
TTITLE4=空しい心
TTITLE5=神話
TTITLE6=サウンドトラック1984
TTITLE7=ラプソディ
TTITLE8=Roochoo Gumbo 〜 Hoodoo Chunko
TTITLE9=レモンティー
TTITLE10=ロックンロールの真最中
TTITLE11=I Want To Be With You
TTITLE12=オリエント・エクスプレス
TTITLE13=未知の大陸
TTITLE14=Honky-Tonk Son Of A Gun
TTITLE15=タンジール
TTITLE16=ピエロ
TTITLE17=サイコ・サイコー
EXTD=
EXTT0=
EXTT1=
EXTT2=
EXTT3=
EXTT4=
EXTT5=
EXTT6=
EXTT7=
EXTT8=
EXTT9=
EXTT10=
EXTT11=
EXTT12=
EXTT13=
EXTT14=
EXTT15=
EXTT16=
EXTT17=
PLAYORDER=
